Patient4_TMGait_0pt4_01_right_27_EMG.mot
version=1
nRows=26
nColumns=33
inDegrees=no
endheader
time	1LAddLong	2LGlutMax	3LGlutMed	4LIliopsoas	5LSemiMemb	6LBicFemLong	7LRecFem	8LVastMed	9LVastLat	10LGasMed	11LTibAnt	12lTibPost	13LPeroneusLong	14LSol	15LExtDigLong	16LFlexDigLong	17RAddLong	18RGlutMax	19RGlutMed	20RIliopsoas	21RSemiMemb	22RBicFemLong	23RRecFem	24RVastMed	25RVastLat	26RGasMed	27RTibAnt	28RTibPost	29RPeroneusLong	30RSol	31RExtDigLong	32RFlexDigLong
36.185	0.007935	-0.031281	0.031128	0.0177	0.047455	0.015717	-0.085449	-0.043182	0.077362	0.06897	0.088348	0.007324	0.13504	-0.041351	-0.36743	0.015106	0.053101	-0.06546	-0.40375	0.029602	0.001221	0.065002	-0.028992	-0.04364	0.001984	-0.080109	0.17136	-0.004578	-0.29221	0.080109	0.003967	0.010376
36.186	-0.004272	-0.061188	0.030823	0.025787	0.023193	0.038757	0.10101	-0.039368	0.022278	0.012665	-0.016937	0.007477	0.015717	-0.24933	0.20264	-0.000458	0.028839	-0.053253	-0.14526	-0.10117	-0.026245	0.077972	-0.016632	-0.032196	-0.011597	-0.065918	0.13702	-0.009766	0.12573	0.11322	-0.00473	0.003204
36.187	0.002136	-0.035858	0.12909	-0.01236	0.011597	0.041199	0.1471	-0.030212	-0.12131	0.002747	0.13596	0.007172	-0.08316	-0.33752	0.11597	-0.013733	-0.007629	-0.020447	-0.2594	-0.008087	-0.031738	0.088501	0.003815	-0.049896	-0.014343	-0.069427	0.10468	-0.003662	0.26062	0.055542	0.003967	0.012817
36.188	-0.004272	-0.063629	0.13199	-0.010071	0.015411	0.012054	0.1387	-0.008545	-0.073242	-0.015869	0.093536	0.010986	-0.22186	-0.51895	0.62012	-0.008698	-0.024109	-0.011902	-0.56015	0.028076	-0.064697	0.068054	-0.0354	-0.020142	0.00824	-0.067291	0.21378	-0.008545	0.02533	-0.085297	-0.000305	0.009003
36.189	0.002594	-0.059509	0.062866	0.007782	0.005035	0.005188	0.10574	0.001984	-0.090942	0.005341	-0.1564	-0.000153	-0.052338	-0.35706	0.1947	-0.005646	-0.031433	-0.007477	-0.33188	0.065002	0.007477	0.061493	0.000458	-0.058899	0.002747	-0.063934	0.3093	-0.009003	-0.018158	-0.12283	0.001221	0.011292
36.19	0.001984	-0.039063	-0.030212	-0.02594	0.013428	-0.003662	0.000916	-0.005646	-0.11078	0.016174	-0.13947	-0.001373	0.005493	-0.059204	0.19669	-0.01358	-0.012207	-0.02121	-0.067139	0.11765	0.02533	0.14389	0.032349	-0.045013	0.011444	-0.063477	0.39902	-0.006714	-0.00351	-0.12787	-0.000305	0.007782
36.191	-0.001984	-0.024872	0.1593	-0.002747	0.014801	0.018768	-0.079041	-0.005035	-0.091553	0.034485	-0.012665	0.013885	-0.043488	-0.10834	0.049133	-0.024872	-0.015106	-0.048523	0.35446	0.088654	0.065613	0.22614	0.03067	-0.027771	-0.001373	-0.072632	0.73074	-0.002747	-0.18082	-0.15274	0.000458	0.01236
36.192	-0.00473	-0.027466	0.19745	0.00824	0.006104	0.037689	0.008545	0.012817	-0.036621	-0.007782	0.12436	-0.009155	-0.18188	-0.029144	-0.36026	-0.032654	-0.034332	-0.053253	0.60532	0.070343	0.066223	0.15976	0.03952	0.013733	0.007477	-0.067902	0.42068	-0.003357	-0.027466	-0.18509	-0.007019	0.010223
36.193	0.00473	-0.040131	0.026245	0.011597	0.011597	0.07019	-0.007019	0.016479	-0.094299	-0.032043	0.097961	-0.001831	-0.27954	0.055542	0.015259	-0.01709	-0.015411	-0.042419	0.37903	0.034637	-0.03067	0.098267	0.041046	-0.016327	-0.000763	-0.063782	-0.16083	-0.007019	0.44586	-0.17639	0.00061	0.014191
36.194	0.00885	-0.011902	-0.046997	0.007935	0.018921	0.074921	-0.00885	0.023499	0.008545	-0.087128	0.043182	0.001221	0.26321	0.20477	-0.25421	0.002441	-0.000153	-0.039215	0.019073	-0.018921	-0.042267	0.076447	0.015717	-0.046234	0.020752	-0.059357	-0.15717	-0.013123	0.42099	-0.11398	0.002441	0.004425
36.195	0.009003	-0.044861	0.21454	0.005188	0.031281	0.13214	-0.088043	0.008392	0.081635	-0.09491	0.15411	0.001678	0.38589	0.28931	0.33661	-0.001373	0.00412	-0.024872	-0.18662	-0.074768	-0.092163	0.06424	-0.029755	-0.019684	0.005035	-0.054321	-0.54398	-0.001526	-0.084686	-0.072479	0.001984	0.003815
36.196	0.016785	-0.059967	0.21316	-0.037231	0.039673	-0.042419	-0.12894	-0.034027	0.1886	-0.024719	-0.075378	-0.003204	0.18692	0.21362	-0.25452	-0.003662	0.009613	-0.032349	0.14954	-0.084839	-0.16785	0.072632	-0.1651	-0.019684	0.020447	-0.043945	-0.49133	-0.00351	-0.10498	0.012054	0.002289	0.001678
36.197	0.012512	-0.046539	-0.034332	-0.037231	0.036011	-0.031586	0.006714	-0.028992	0.12482	-0.016479	-0.1358	-0.00473	-0.012512	0.01358	-0.18494	-0.008087	0.000458	-0.021362	0.327	-0.031128	-0.15808	0.10712	-0.12589	-0.044708	0.0177	-0.049744	-0.51285	-0.007935	0.007172	0.103	0.000916	-0.006714
36.198	0.006104	-0.046539	-0.077667	-0.015106	-0.003662	0.016327	0.09201	-0.02655	0.005188	-0.001373	0.082855	-0.001831	-0.20447	0.010529	-0.19669	-0.00473	-0.004272	0.013428	0.21469	-0.23789	-0.12711	0.082092	-0.067902	0.000153	0.018768	-0.050659	-0.19531	-0.001526	-0.060272	0.17624	-0.005341	-0.023193
36.199	-0.004578	-0.077209	-0.14053	0.00061	-0.014496	0.037689	0.076752	-0.009308	-0.03891	-0.027924	-0.032959	-0.012665	-0.29663	0.03952	-0.19302	-0.001221	-0.019226	-0.010834	0.2121	-0.3215	0.094757	0.11581	-0.051422	0.074158	0.021057	-0.044708	-0.073853	-0.009766	0.015869	0.17212	-0.001068	-0.033875
36.2	0.005035	-0.10208	-0.12787	-0.004272	-0.011444	0.046844	0.027161	-0.016632	-0.01709	-0.013733	-0.056763	-0.003815	0.09079	-0.15213	-0.36179	0.001831	-0.007019	-0.036163	-0.000458	-0.22049	0.13443	0.17151	-0.046387	0.033722	0.028534	-0.051422	-0.005341	-0.005951	0.003357	0.083466	0.00061	-0.044861
36.201	0.002747	-0.08606	-0.088043	-0.013428	-0.020142	0.07782	0.093689	-0.021515	-0.085907	0.005493	-0.065765	0.002441	0.67581	-0.2417	-0.21622	-0.003815	0.010071	-0.031738	0.13763	-0.17425	-0.031433	0.16754	-0.014191	0.031433	0.01236	-0.050659	0.068665	-0.010681	-0.014343	0.041199	-0.001831	-0.058441
36.202	0.006409	-0.089874	-0.090027	-0.009766	-0.0354	0.095978	0.11337	-0.012207	-0.12192	0.002594	-0.064392	-0.000458	-0.19745	-0.13153	0.050659	0.010529	0.005341	-0.029297	0.38605	0.082397	-0.077209	0.21515	-0.066833	-0.005646	0.007629	-0.048523	0.19226	-0.005341	-0.030975	0.018311	0.000763	-0.066376
36.203	0.006866	-0.10483	-0.084381	-0.018158	-0.043335	0.067749	0.075531	-0.00351	-0.07782	-0.010834	-0.062561	0.001984	0.098572	-0.19241	0.086365	0.014343	-0.013123	-0.025177	0.14771	0.29068	-0.2121	0.22675	-0.017242	0.016479	0.013885	-0.046082	0.18249	-0.006866	-0.11459	0.048676	0.001984	-0.06546
36.204	0.000916	-0.1152	-0.032959	0.022888	0.003204	0.044708	0.036926	0.001373	-0.002136	-0.019226	-0.093079	-0.001984	0.16602	-0.14816	0.096436	0.007172	0.006256	-0.064545	-0.19012	0.33814	0.023041	0.18692	0.01236	0.052032	0.005646	-0.045166	0.17838	-0.000763	-0.45776	0.00824	0.001678	-0.070343
36.205	0.003204	-0.13611	0.006104	0.011597	-0.032196	0.010071	0.080566	-0.004272	0.025482	0.007324	-0.017853	0.008698	-0.037384	-0.15808	0.0354	-0.007019	0.007477	-0.10239	-0.37766	0.30426	0.22263	0.14877	0.004425	0.019379	0.006714	-0.040588	0.18539	-0.011444	-0.57404	-0.082703	-0.001831	-0.068207
36.206	0.008545	-0.11749	-0.009308	-0.001068	-0.004883	-0.17349	0.097351	-0.004425	0.035553	0.00351	-0.037689	-0.007782	0.44907	-0.14252	0.070648	0.008087	0.013885	-0.083771	-0.57083	0.24399	0.12695	0.13275	-0.037537	-0.009155	0.013733	-0.037537	0.1503	-0.004272	-0.44678	-0.078125	-0.002289	-0.055389
36.207	0.015717	-0.088959	0.007172	0.013733	0.015869	-0.15213	0.12222	-0.002289	0.014496	-0.030823	-0.018463	-0.005646	-0.1178	0.03952	0.1796	0.005188	0.009308	-0.032349	-0.6926	0.24185	0.13596	0.090637	-0.051575	0.040588	0.010834	-0.039368	0.076141	0.002136	0.34637	-0.032501	0.001373	-0.045929
36.208	0.00946	-0.11154	0.074768	0.00824	0.070343	-0.18356	0.14069	-0.00473	-0.015869	-0.074921	0.005188	-0.001984	0.13702	0.034027	0.16892	0.007629	0.030975	-0.035095	-0.69244	0.2066	0.12283	0.06073	-0.06958	0.070496	0.018616	-0.035858	-0.1091	-0.004425	0.35675	0.010071	-0.000458	-0.046234
36.209	0.011139	-0.11841	-0.016785	-0.001221	0.046997	-0.085602	0.23605	-0.012817	-0.091705	-0.040131	0.018311	0.005035	0.52109	-0.034332	0.11627	-0.002747	0.056	0.009918	-0.13596	0.092621	0.11566	0.034332	-0.067444	0.046082	0.028687	-0.033264	-0.072021	-0.005341	0.28656	0.021362	-0.002594	-0.031891
36.21	0.000916	-0.13092	-0.057373	0.015564	0.001678	0.023804	0.11902	-0.009003	-0.074463	0.00885	0.04837	-0.005341	-0.16235	-0.036011	0.06134	0.001373	0.061188	0.013275	0.21027	-0.002441	0.10651	0.006409	-0.033569	-0.021515	0.030975	-0.025482	-0.081482	-0.003967	0.26016	-0.038147	-0.002441	-0.023193
